<!DOCTYPE svg PUBLIC "-//W3C//DTD SVG 20010904//EN" "http://www.w3.org/TR/2001/REC-SVG-20010904/DTD/svg10.dtd">
<svg version="1.0" xmlns="http://www.w3.org/2000/svg" width="409px" height="406px" viewBox="0 0 4090 4060" preserveAspectRatio="xMidYMid meet">
<g id="layer101" fill="#7bbbff" stroke="none">
 <path d="M2095 2070 l1990 -1990 3 897 2 898 -1092 1092 -1093 1093 -900 0 -900 0 1990 -1990z"/>
 </g>
<g id="layer102" fill="#f3f8ff" stroke="none">
 <path d="M1885 3160 l-160 -160 65 -66 c128 -131 202 -154 306 -95 118 68 179 191 141 284 -16 36 -163 197 -181 197 -6 0 -83 -72 -171 -160z m275 -82 c0 -35 -53 -113 -101 -148 -62 -44 -98 -41 -157 15 l-47 44 105 106 105 106 48 -50 c29 -31 47 -59 47 -73z"/>
 <path d="M2212 2837 l-162 -162 123 -123 122 -122 28 27 27 28 -87 87 -87 88 34 35 34 35 81 -80 81 -80 29 30 29 30 -79 80 -80 80 43 42 42 43 90 -90 90 -90 27 28 28 27 -125 125 -125 125 -163 -163z"/>
 <path d="M2515 2530 l-160 -160 50 -49 50 -50 128 75 c71 42 131 74 132 72 2 -2 -30 -62 -71 -133 l-75 -129 50 -50 51 -51 162 163 163 162 -33 32 -32 33 -116 -115 c-76 -74 -110 -103 -96 -80 11 19 50 85 86 145 l65 110 -33 34 -34 34 -138 -83 c-77 -46 -143 -85 -149 -88 -5 -3 43 49 108 115 l117 119 -28 27 c-15 15 -30 27 -33 27 -2 0 -76 -72 -164 -160z"/>
 <path d="M2963 2231 c-55 -25 -128 -103 -149 -157 -36 -95 2 -196 98 -260 91 -61 188 -50 276 34 83 77 111 167 78 247 -54 128 -188 188 -303 136z m164 -91 c40 -24 56 -53 56 -101 0 -79 -90 -169 -169 -169 -79 0 -139 80 -115 153 11 33 77 104 116 125 31 17 77 14 112 -8z"/>
 </g>

</svg>