<svg version="1.1" xmlns="http://www.w3.org/2000/svg" viewBox="0 0 414 414">
  <path fill="rgb(255,255,255)" stroke="rgb(255,255,255)" stroke-width="1" opacity="0"
    d="M0 0h414v414H0V0zM414 7L10 407h181l218-218V7z" />
  <path fill="rgb(255,255,255)" stroke="rgb(255,255,255)" stroke-width="1" opacity="1"
    d="M298 178q8-1 13 1l13 12q5 5 3 18-3 8-9 12-6 5-16 4-11-3-17-11-4-6-5-14l2-8 10-11 6-3zm2 8l-5 2-6 8q-1 8 3 12l11 8q6 1 10-1l6-7q1-8-2-11l-8-9q-3-3-9-2zM267 207l32 32-5 5-24-24-2 1 17 27 1 4-5 5-1-1-29-17 23 25-5 5-33-31 11-10 26 15-1-1-14-26 9-9zM230 244l4 6-17 17 7 6h2l16-15 4 5-16 16 9 9 19-18 4 6-24 23-32-31 24-24zM196 281q8-1 13 2l11 11q6 5 4 17l-3 6-15 15-32-32 16-16 6-3zm2 8l-6 3-7 8 21 20h2l8-9q1-7-2-10l-9-10-7-2z" />
  <path fill="rgb(89,169,255)" stroke="rgb(89,169,255)" stroke-width="1" opacity="1"
    d="M414 8v180L190 414H11L414 8zM301 177l-10 4q-8 5-11 14v11l5 9q5 7 15 10 13 2 19-4 6-5 9-13 2-13-4-18-7-12-23-13zm-34 29l-10 10 13 24 2 2-25-14-1-1-11 11 34 32 5-5v-2l-20-22 26 16h2l5-5v-2l-17-27 23 21h2l5-5-33-33zm-37 37l-25 25 34 32 24-24-5-6-19 17-8-8 16-16-5-6-17 16-7-6 17-17-5-7zm-36 38l-5 3-16 16 33 33 15-15 4-7v-9l-4-8-13-12q-6-2-14-1z" />
  <path fill="rgb(89,169,255)" stroke="rgb(89,169,255)" stroke-width="1" opacity="1"
    d="M298 187q14 0 18 10 3 3 2 11l-3 5-6 3h-4q-9-3-13-9-3-4-2-12l6-7 2-1zM196 290q6-1 9 2l9 10 2 7q-3 7-9 11l-21-21 10-9z" />
</svg>